<?xml version="1.0" encoding="UTF-8"?>
<svg id="Layer_1" data-name="Layer 1" xmlns="http://www.w3.org/2000/svg" viewBox="0 0 480 640">
  <defs>
    <style>
      .cls-1, .cls-2, .cls-3, .cls-4, .cls-5 {
        fill: none;
        stroke: #000;
        stroke-miterlimit: 10;
      }

      .cls-6 {
        stroke-width: 0px;
      }

      .cls-2 {
        stroke-width: 1.82px;
      }

      .cls-3 {
        stroke-width: 1.59px;
      }

      .cls-4 {
        stroke-width: 2px;
      }

      .cls-7 {
        letter-spacing: .03em;
      }

      .cls-8 {
        letter-spacing: .03em;
      }

      .cls-9 {
        font-family: Sudsakorn---Personal-Use, 'Sudsakorn - Personal Use';
        font-size: 30px;
      }

      .cls-5 {
        stroke-width: .79px;
      }
    </style>
  </defs>
  <g>
    <line class="cls-3" x1="238.15" y1="213.91" x2="238.15" y2="253.31"/>
    <path class="cls-3" d="M248.73,270.7c-.93-6.47-5.32-11.36-10.59-11.36s-9.66,4.9-10.59,11.36h21.18Z"/>
    <path class="cls-5" d="M239.79,259.54v-2.05c0-2.46-.74-4.45-1.64-4.45s-1.64,1.99-1.64,4.45v2.05h3.29Z"/>
  </g>
  <text class="cls-9" transform="translate(131.25 425.77)"><tspan class="cls-7" x="0" y="0">living </tspan><tspan class="cls-8" x="136.35" y="0">c</tspan><tspan class="cls-7" x="156.12" y="0">ozy</tspan></text>
  <path class="cls-6" d="M212.99,316.33s.8.1.8.1l-.19,1.67c.05.28.15.16.23.2,10.34,1.01,21.15-1.04,30.22-6.1,14.19-7.65,20.61-23.37,21.55-38.82.25-2.16.24-5.6.32-7.8.08-8.12,1.85-16.23,5.15-23.65,1.86-4.34,4.24-8.47,6.9-12.36.32-.6.11-1.62-.13-2.7,0,0,0,0,0,0,0,0,0,0,0,0-1.18-.95,1.61,1.29,1.32,1.06h.01s.02-.02.02-.02c0,0,.04-.02.04-.02.83-.41,1.9-.82,2.73-1.18-.18.82-.48,1.97-.64,2.76,0,.05-.02.12-.03.17-.29-.23,2.5,2.01,1.32,1.06,0,0,0,0,0,0,0,0,0,0,0,0-1.05-.04-2.07-.01-2.56.43-4.46,5.55-7.46,12.21-8.95,19.16-1.47,6.3-1.64,12.93-1.88,19.37-.02,1.01-.17,3.03-.29,4.03-.98,10.7-4.36,21.66-11.43,29.95-10.6,12.7-27.84,16.27-43.65,14.67-.09.02-.15-.12-.27.14,0,0-.19,1.67-.19,1.67-.31-.03-.6-.07-.96-.12,0,0,.58-3.66.58-3.66h0Z"/>
  <path class="cls-6" d="M239.21,215.33c-24.37-.17-48.15,13.17-60.59,34.13-4.13,6.92-7.1,14.52-8.62,22.41,0,0-.94-1.11-.94-1.11,17.25-.56,34.08,9.87,41.04,25.68,7.21,15.59,3.96,35.16-7.93,47.57-7.73,8.36-18.89,13.48-30.37,13.85,0,0,.85-1.24.85-1.24,10.04,28.01,38.84,47.35,68.52,46.16,29.57-.52,57.12-21.62,65.29-50.05,2.11-7.02,3.07-14.32,2.97-21.7,0,0,.07-22.43.07-22.43l.1-22.42c-.03-7.34-1.09-14.69-3.36-21.7-8.73-28.57-37.04-49.43-67.01-49.15h0ZM239.21,214.6c30.5-.47,59.53,20.17,69.11,49.18,2.47,7.18,3.78,14.76,3.88,22.37l.12,22.43.07,22.43c.58,22.94-10.38,45.76-28.7,59.6-38.79,29.98-96.54,12.84-112.77-33.38,0,0-.43-1.22-.43-1.22l1.28-.02c11.05-.06,21.93-4.8,29.53-12.84,20.76-21.55,12.23-58.08-15.95-68.13-5.57-2.03-11.53-2.7-17.41-2.39,1.85-8.42,5.07-16.54,9.68-23.8,12.94-20.95,36.96-34.4,61.61-34.23h0Z"/>
  <g>
    <path class="cls-1" d="M187.47,309.59s1.13,1.61,2.4,4.3c4.16,8.83,9.74,29.35-18.54,43.18"/>
    <path class="cls-1" d="M189.49,315.66s-6.36-2.25-6.86-4.4c0,0,3.44-.97,6.53,1.2,3.09,2.18,3.32,8.95,3.32,8.95,0,0,4.67-4.58,7.37-3.9s-.26.71-.26.71c0,0,.07,5.39-6.46,7.14l-.14,6.87s-5.91-10.47-8.73-9.28,4.46,13.05,6.88,15.76"/>
  </g>
  <g>
    <path class="cls-4" d="M227.13,395.26c-.97.86-1.29,3.32-1.85,4.65-.06.2-.11.39-.14.56-.29,1.15,1.16,1.35,2.2,1.05.58-.19.91-.63,1.24-1.15.74-1.21,2.01-3.27,2.6-4.3.46-.74.09-1.04-.71-1.06-.96-.02-2.36-.14-3.21.18l-.12.06Z"/>
    <g>
      <path class="cls-4" d="M225.1,394.38c1.89,1.2,3.87,1.07,7.04,1.08,5.6-.01,14.36.03,18.84-.02,1.5-.04,3.07-.17,4.24-1.1,2.57-2.49,3.33-6.62,5-9.77,2.07-4.77,5.95-9.91,1.43-13.35-4.25-2.11-8.55,1.94-10.49,5.56-2.52,4.62-2.39,8-8.59,8.02-11.86.99-10.23-2.07-15.29-10.59-2.2-3.86-8.16-6.32-10.52-1.48-1.83,4.33,2.28,9.13,3.72,13.1,1.42,3.1,2.07,6.76,4.51,8.47l.11.07Z"/>
      <path class="cls-4" d="M224.5,370.02c-.39-3.59-1.71-7.4-.81-11.02,1.65-6.12,10.77-6.27,16.3-6.74,6.14-.46,14.72.78,16.67,7.63.62,3.57-1.04,7.19-1.25,10.72"/>
      <path class="cls-4" d="M248.58,395.27c-.25.23.09.75.57,1.57.66,1.09,1.56,2.67,2.17,3.61.53.84,1.39,1.08,2.31,1.05.46-.02,1.07-.08,1.14-.59-.08-1.09-.85-2.38-1.2-3.47-.56-1.45-.82-2.21-1.97-2.33-.89-.07-2.15-.19-2.94.1l-.07.05Z"/>
    </g>
  </g>
  <path class="cls-4" d="M310.9,309.59c-10.99.11-27.32-.22-37.67.13-.92.17-.86.79-.89,1.58,0,10.81,0,73.57,0,84.82"/>
  <path class="cls-4" d="M305.98,329.28c-.5,1.37-4.01,1.02-6.51,1.07-5.44-.02-13.24.04-16.85-.03-2.37.07-3.15-1.36-3.19-3.65.1-2.25-.83-7.06,1.8-7.84,6.22-.53,16.15-.14,22.41-.17,2.1,0,2.8,1.39,2.86,3.46.07,2,.29,5.42-.48,7.08l-.05.09Z"/>
  <path class="cls-2" d="M279.53,340.32c4.03,0,22.85,0,25.9,0"/>
  <path class="cls-4" d="M310.9,313.83c-10.31.14-24.9-.28-34.37.17-.86.22-.79.87-.83,1.65,0,10.65,0,67.79,0,78.59"/>
</svg>