<?xml version="1.0" encoding="UTF-8"?>
<svg id="Layer_1" data-name="Layer 1" xmlns="http://www.w3.org/2000/svg" viewBox="0 0 480 640">
  <defs>
    <style>
      .cls-1 {
        stroke-width: 1.51px;
      }

      .cls-1, .cls-2, .cls-3, .cls-4, .cls-5 {
        fill: none;
        stroke: #000;
        stroke-miterlimit: 10;
      }

      .cls-6 {
        font-size: 86.63px;
        letter-spacing: .03em;
      }

      .cls-6, .cls-7 {
        font-family: BerlinSansFBDemi-Bold, 'Berlin Sans FB Demi';
        font-weight: 700;
      }

      .cls-7 {
        font-size: 69.3px;
        letter-spacing: .03em;
      }

      .cls-2 {
        stroke-width: .75px;
      }

      .cls-8 {
        stroke-width: 0px;
      }

      .cls-3 {
        stroke-width: 2.89px;
      }

      .cls-4 {
        stroke-width: 3.08px;
      }

      .cls-5 {
        stroke-width: 1.66px;
      }
    </style>
  </defs>
  <g>
    <line class="cls-1" x1="244.01" y1="206.79" x2="244.01" y2="240.38"/>
    <path class="cls-1" d="M255.2,255.21c-.99-5.51-5.62-9.69-11.18-9.69s-10.2,4.17-11.18,9.69h22.37Z"/>
    <path class="cls-2" d="M245.75,245.69v-1.75c0-2.09-.78-3.79-1.73-3.79s-1.73,1.7-1.73,3.79v1.75h3.47Z"/>
  </g>
  <g>
    <line class="cls-4" x1="271.11" y1="345.52" x2="267.23" y2="361.22"/>
    <g>
      <path class="cls-4" d="M293.75,321.16c-1.63-1.37-1.86-3.69-2-5.9-.12-2.69-.16-5.65-.19-8.4-.24-9.31.66-17.92,8.75-22.66,5.84-3.39,14.55-2.56,21.56-2.7,8.76-.39,16.98,1.48,21.1,10.36,2.54,5.83,2.12,12.06,2.47,18.48.12,3.72.2,7.73.15,11.16-.08,4.06-.19,7.37-1.44,10.47-2.21,5.33-7.38,9.38-12.77,11.32-5.74,2.08-12.55,1.77-19.06,1.9-8.07.08-17.34.04-24.13-.15-7.66-.58-18.92,1.54-22.82-6.98-2.48-5.45,1.13-11.89,6.7-13.55,4.07-1.41,8.85-1.09,13.63-1.2,7.89-.1,16.65-.07,23.92-.18-2.19-.2-5.93-.11-9.76-.33-2.07-.16-4.35-.32-6.01-1.57l-.1-.08Z"/>
      <path class="cls-8" d="M343.38,360.99c-2.76-1.36-3.01-6.85-3.89-9.89-1.46-6.51-2.09-13.62-2.74-19.7-.55-4.3-1.42-8.78-3.74-12.49-2.25-3.74-6.58-4.95-10.75-4.94-4.28-.1-8.76.04-13.03-.08-2.12.04-5.99-.91-5.43-1.71.54-1.04,2.82-1.27,5.72-1.43,5.88.14,13.12-.51,18.74.55,8.4,2,10.85,11.81,11.8,19.31.65,5.7,1.18,12.05,2.45,18.22.18,2.51,3.49,11.41.93,12.18h-.06Z"/>
      <path class="cls-4" d="M321.66,314.4c-1.66,10.25-6.07,37.46-7.76,47.88"/>
      <path class="cls-4" d="M293.88,346.76l2.65,15.96"/>
      <path class="cls-4" d="M256.93,312.99c4.76-.07,12.25-.26,19.42-.23,7.22-.49,10.09,1.88,12.76,8.79"/>
    </g>
    <path class="cls-4" d="M275.1,314.4l-.62,7.76"/>
  </g>
  <g>
    <rect class="cls-5" x="173.48" y="337.75" width="34.3" height="7.88"/>
    <path class="cls-5" d="M179.44,341.44l23.85.5"/>
    <rect class="cls-5" x="178.72" y="345.23" width="3.88" height="17.19" transform="translate(71.37 -28.12) rotate(11.08)"/>
    <rect class="cls-5" x="199.72" y="345.23" width="3.88" height="17.19" transform="translate(-97.26 77.23) rotate(-17.54)"/>
    <path class="cls-5" d="M183,323.6h15.4l-2.24,14.16h-10.52l-2.65-14.65h6.13s-9.19-9.6,1.57-22.02c0,0,11.09,7.95,2.65,21.86l-2.65-.08v-15.81"/>
  </g>
  <text class="cls-7" transform="translate(124.53 318.38)"><tspan x="0" y="0">L</tspan></text>
  <text class="cls-6" transform="translate(123.14 368.47)"><tspan x="0" y="0">c</tspan></text>
  <polyline class="cls-3" points="139.17 257.44 244.79 208.11 356.69 257.44 356.69 362.06 173.94 364.05"/>
  <path class="cls-3" d="M178.9,238.89s46.36,20.54,47.68,58.28,19.17,66.1,19.17,66.1"/>
</svg>